<svg id="Layer_1" data-name="Layer 1" xmlns="http://www.w3.org/2000/svg" xmlns:xlink="http://www.w3.org/1999/xlink" width="674.11" height="588.18" viewBox="0 0 674.11 588.18"><defs><style>.cls-1{fill:#e80407;}.cls-2,.cls-3{stroke-linejoin:bevel;}.cls-2{stroke-width:5.47px;fill:url(#linear-gradient);stroke:url(#linear-gradient-2);}.cls-3{stroke-width:5.29px;fill:url(#linear-gradient-3);stroke:url(#linear-gradient-4);}.cls-4{fill:url(#linear-gradient-5);}</style><linearGradient id="linear-gradient" x1="339.56" y1="457.96" x2="384.21" y2="406.61" gradientTransform="matrix(5.47, 0, 0, -5.47, -1621.44, 2650.65)" gradientUnits="userSpaceOnUse"><stop offset="0" stop-color="#ededed"/><stop offset="0.64" stop-color="#b7b7b7"/><stop offset="1" stop-color="#e7e7e7"/></linearGradient><linearGradient id="linear-gradient-2" x1="327.58" y1="459.8" x2="392.12" y2="409.14" gradientTransform="matrix(5.47, 0, 0, -5.47, -1621.44, 2650.65)" gradientUnits="userSpaceOnUse"><stop offset="0" stop-color="#c8c8c8"/><stop offset="0.66" stop-color="#191919"/><stop offset="1" stop-color="#ababab"/></linearGradient><linearGradient id="linear-gradient-3" x1="349.41" y1="421.42" x2="359.93" y2="402.21" gradientTransform="matrix(5.29, 0, 0, -5.29, -1556.74, 2578.29)" gradientUnits="userSpaceOnUse"><stop offset="0" stop-color="#747474"/><stop offset="1" stop-color="#e5e5e5"/></linearGradient><linearGradient id="linear-gradient-4" x1="369.42" y1="419.44" x2="371.02" y2="420.63" gradientTransform="matrix(5.29, 0, 0, -5.29, -1556.74, 2578.29)" gradientUnits="userSpaceOnUse"><stop offset="0" stop-color="#c4c4c4"/><stop offset="1" stop-color="#191919"/></linearGradient><linearGradient id="linear-gradient-5" x1="348.22" y1="420.97" x2="358.74" y2="401.76" gradientTransform="matrix(5.12, 0, 0, -5.12, -1491.39, 2504.21)" xlink:href="#linear-gradient-3"/></defs><title>schindler-logo</title><g id="layer1"><path id="text3303" class="cls-1" d="M80.77,540.23v22a80.64,80.64,0,0,0-15.07-5.77,54.17,54.17,0,0,0-13.88-1.95q-8.67,0-12.81,2.64t-4.15,8.2a8,8,0,0,0,2.8,6.5q2.79,2.33,10.14,4l10.3,2.29q15.65,3.48,22.24,10.56t6.59,20.15q0,17.18-9.2,25.54t-28.11,8.38a87.45,87.45,0,0,1-17.9-1.88,102.13,102.13,0,0,1-18-5.56V612.71a86,86,0,0,0,17.37,7.95,52.93,52.93,0,0,0,16.17,2.68q7.91,0,12.12-2.92a9.54,9.54,0,0,0,4.21-8.34q0-4.86-2.86-7.5t-11.4-4.73L40,597.56q-14.07-3.34-20.57-10.64t-6.5-19.66q0-15.5,9-23.84t26-8.34a101.74,101.74,0,0,1,15.89,1.29,132.81,132.81,0,0,1,16.89,3.86Zm83.29,25.08V585.6a35.31,35.31,0,0,0-9.2-5.14,28,28,0,0,0-9.58-1.67q-9.42,0-14.67,6.08t-5.24,17q0,10.9,5.24,17t14.67,6.08a28.49,28.49,0,0,0,18.78-6.88v20.36a59,59,0,0,1-10.71,3.23,55.8,55.8,0,0,1-10.9,1.08q-19,0-29.77-10.81t-10.74-30q0-19.26,10.74-30.06T142.45,561a55.12,55.12,0,0,1,10.9,1.08,61,61,0,0,1,10.71,3.23Zm90.25,28v47.39H231.7V604.58q0-10.22-.41-14a15.44,15.44,0,0,0-1.41-5.63,9.57,9.57,0,0,0-8.73-5.14,12.6,12.6,0,0,0-11.05,6q-4,6-4,16.64v38.29H183.59V532.58h22.49v41.7a35.82,35.82,0,0,1,10.8-10A25.15,25.15,0,0,1,229.5,561q12.19,0,18.5,8.27t6.31,24.05Zm21-30.44h22.49v77.83H275.29Zm0-30.3h22.49v20.29H275.29Zm114.94,60.74v47.39H367.62V604.44q0-10.08-.41-13.9a15.44,15.44,0,0,0-1.41-5.63,9.57,9.57,0,0,0-8.73-5.14,12.62,12.62,0,0,0-11.06,6q-4,6-4,16.64v38.29H319.51V562.88H342v11.4a35.82,35.82,0,0,1,10.8-10A25.19,25.19,0,0,1,365.42,561q12.18,0,18.5,8.27t6.31,24.05Zm68.84-19v-41.7h22.61V640.71H459.07V629.45a31.73,31.73,0,0,1-10.24,10.08,25.63,25.63,0,0,1-12.94,3.2q-13,0-21.36-11.44t-8.35-29.42q0-18,8.35-29.43T435.89,561a25.39,25.39,0,0,1,12.91,3.24,32.17,32.17,0,0,1,10.27,10Zm-14.83,50.38a12.37,12.37,0,0,0,11-5.84q3.8-5.84,3.8-17t-3.8-17a13.27,13.27,0,0,0-22,0q-3.79,5.83-3.8,17t3.8,17a12.31,12.31,0,0,0,11,5.84Zm59.17-92.08h22.48V640.71H503.41Zm114.43,69v7.09H565.27q.83,8.75,5.72,13.13t13.69,4.38a48.63,48.63,0,0,0,14.54-2.33,70.66,70.66,0,0,0,15.29-7.05V636a89.61,89.61,0,0,1-16,5,75.88,75.88,0,0,1-15.95,1.71q-19.1,0-29.68-10.74t-10.58-30.12q0-19.05,10.39-30T581.35,561q16.59,0,26.54,11t10,29.54Zm-23.11-8.27q0-7.1-3.74-11.43a12.24,12.24,0,0,0-9.76-4.35,14.4,14.4,0,0,0-10.62,4.07q-4.08,4.07-5.09,11.71Zm92.33-9.24a26.7,26.7,0,0,0-5.88-2.26,23.9,23.9,0,0,0-5.87-.73q-8.67,0-13.34,6.15t-4.68,17.61v35.86H634.8V562.88h22.49v12.79q4.34-7.65,10-11.16A24.93,24.93,0,0,1,680.71,561c.76,0,1.57,0,2.45.11s2.16.22,3.83.45Z" transform="translate(-12.94 -54.54)"/><path id="path3309" class="cls-2" d="M347.79,57.27c-121,0-220.44,99.42-220.44,220.44s99.42,220.44,220.44,220.44,220.3-99.41,220.3-220.44S468.81,57.27,347.79,57.27Zm0,116.87c57.79,0,103.43,45.78,103.43,103.57S405.58,381.29,347.79,381.29,244.22,335.5,244.22,277.71,290,174.14,347.79,174.14Z" transform="translate(-12.94 -54.54)"/><path id="path3315" class="cls-3" d="M225.13,448.15l123.23-180L470,448.42" transform="translate(-12.94 -54.54)"/><path id="path3355" class="cls-4" d="M472.9,455.74c-83.16,55.67-175.33,50-250.71-.3L348.33,271.13Z" transform="translate(-12.94 -54.54)"/></g></svg>